<svg id="map" width="100%" viewBox="0 0 1000 780" xmlns="http://www.w3.org/2000/svg">
      <defs>
        <pattern id="grid" width="50" height="50" patternUnits="userSpaceOnUse">
          <path d="M 50 0 L 0 0 0 50" fill="none" stroke="rgba(255,255,255,0.05)" stroke-width="0.5"></path>
        </pattern>
      </defs>

      <!-- Sea -->
      <rect width="1000" height="780" fill="#0f1e2e"></rect>
      <rect width="1000" height="780" fill="url(#grid)"></rect>

      <g id="north-group" transform="translate(0,-40)">
        <!-- ===================== NORTH MAINLAND ===================== -->
        <path fill="#263326" stroke="#1a1a1a" stroke-width="1.5" d="
          M -5,-5 H 1005 V -5 Z
          M -5,-5 H 1005 V 5
          L 1005,5 1005,210
          C 990,205 978,194 960,200
          C 944,206 935,222 918,228
          C 900,234 880,220 858,214
          C 838,208 820,202 800,210
          C 778,220 765,240 742,245
          C 720,250 700,238 678,230
          C 656,222 640,210 616,218
          C 594,226 580,248 556,252
          C 532,256 512,240 488,234
          C 466,228 450,220 428,228
          C 404,238 392,262 366,260
          C 342,258 326,238 302,232
          C 278,226 258,228 236,240
          C 214,252 202,272 178,270
          C 156,268 140,250 118,244
          C 96,238 76,242 54,252
          C 36,260 18,272 -5,268
          L -5,-5 Z
        "></path>

        <path fill="#0f1e2e" stroke="none" d="M 60,268 C 75,240 90,210 80,185 C 72,165 52,158 42,178 C 32,198 38,240 60,268 Z"></path>
        <path fill="#0f1e2e" stroke="none" d="M 870,214 C 892,196 915,185 925,200 C 935,216 920,240 900,248 C 882,254 868,234 870,214 Z"></path>

        <path fill="#263326" stroke="#1a1a1a" stroke-width="1" d="M 596,252 C 612,262 626,285 618,306 C 610,324 588,322 576,304 C 564,286 570,258 596,252 Z"></path>
        <path fill="#263326" stroke="#1a1a1a" stroke-width="1" d="M 296,232 C 276,248 264,278 272,300 C 280,320 304,322 318,306 C 332,288 322,250 296,232 Z"></path>

        <!-- ===================== STRAIT ISLANDS ===================== -->
        <path fill="#263326" stroke="#1a1a1a" stroke-width="1" d="M 355,308 C 378,296 410,298 424,318 C 436,336 426,362 406,368 C 386,374 362,358 354,338 C 347,320 350,314 355,308 Z"></path>
        <path fill="#263326" stroke="#1a1a1a" stroke-width="1" transform="translate(-50,-38)" d="M 728,292 C 742,280 760,284 766,300 C 772,314 762,330 746,332 C 730,334 718,320 718,306 C 718,296 722,292 728,292 Z"></path>
        <path fill="#263326" stroke="#1a1a1a" stroke-width="1.2" d="
          M 148,395 C 160,382 180,378 196,386
          C 212,394 220,412 216,430
          C 212,446 198,456 182,454
          C 166,452 152,438 148,420
          C 145,408 144,400 148,395 Z
        "></path>

        <!-- ===================== NORTH ASSETS ===================== -->
        <polygon points="106,248 119,226 132,248" fill="#3fc1ff" stroke="#000" stroke-width="1.2" data-name="Northern Vanguard Base" data-info="Western coastal military base (Mainland)." data-side="north"></polygon>
        <polygon points="490,92 503,70 516,92" fill="#3fc1ff" stroke="#000" stroke-width="1.2" data-name="Highridge Command" data-info="Deep inland military base (Mainland)." data-side="north"></polygon>
        <polygon points="682,278 695,256 708,278" fill="#3fc1ff" stroke="#000" stroke-width="1.2" data-name="Boreal Watch Post" data-info="Forward operating base (Island)." data-side="north"></polygon>
        <rect x="242" y="88" width="18" height="18" fill="#ffcc00" stroke="#000" stroke-width="2" rx="2" data-name="Arktholm (Capital X)" data-info="Political capital of Country X (Mainland)." data-side="north"></rect>
        <rect x="848" y="162" width="13" height="13" fill="#ffffff" stroke="#000" stroke-width="1.5" rx="1" data-name="Valbrek" data-info="Eastern city near coast (Mainland)." data-side="north"></rect>
        <rect x="78" y="228" width="13" height="13" fill="#ffffff" stroke="#000" stroke-width="1.5" rx="1" data-name="Nordvik" data-info="Major western costal city (Mainland)." data-side="north"></rect>
      </g>

      <g id="south-group" transform="translate(0,40)">
        <!-- ===================== SOUTH MAINLAND ===================== -->
        <path fill="#3a3222" stroke="#1a1a1a" stroke-width="1.5" d="
          M -5,785 H 1005 V 785 Z
          M -5,785 H 1005 V 600
          C 985,598 968,582 948,576
          C 926,570 904,578 882,588
          C 860,598 842,610 818,602
          C 796,594 780,574 756,568
          C 732,562 710,570 688,582
          C 666,594 650,608 624,600
          C 600,592 586,570 560,566
          C 536,562 514,574 492,586
          C 470,598 454,612 428,606
          C 402,600 388,578 362,572
          C 338,566 316,570 294,582
          C 272,594 258,612 232,608
          C 208,604 192,584 168,578
          C 144,572 122,578 98,590
          C 76,600 58,614 30,608
          C 14,604 -5,598 -5,598
          L -5,785 Z
        "></path>

        <path fill="#0f1e2e" stroke="none" d="M 920,576 C 940,592 968,602 980,588 C 990,574 978,552 958,546 C 938,540 916,556 920,576 Z"></path>
        <path fill="#0f1e2e" stroke="none" d="M 40,608 C 22,588 8,564 20,548 C 32,532 56,538 66,558 C 76,576 62,598 40,608 Z"></path>

        <path fill="#3a3222" stroke="#1a1a1a" stroke-width="1" transform="translate(50,-90)" d="M 480,586 C 496,570 518,556 516,534 C 514,514 492,506 476,520 C 460,534 460,568 480,586 Z"></path>
        <path fill="#3a3222" stroke="#1a1a1a" stroke-width="1" d="M 830,602 C 848,588 868,572 864,550 C 860,530 836,524 820,538 C 804,554 806,588 830,602 Z"></path>

        <!-- South island large, moved further north/out into the passage -->
        <path fill="#3a3222" stroke="#1a1a1a" stroke-width="1" d="M 818,388 C 842,376 870,382 876,402 C 882,420 866,440 846,440 C 826,440 810,424 812,406 C 813,396 816,392 818,388 Z"></path>
        <path fill="#3a3222" stroke="#1a1a1a" stroke-width="1" d="M 238,494 C 256,482 276,488 280,506 C 284,522 270,536 253,536 C 236,534 224,520 226,504 C 227,496 232,496 238,494 Z"></path>

        <!-- ===================== SOUTH ASSETS ===================== -->
        <polygon points="826,610 839,588 852,610" fill="#ff8855" stroke="#000" stroke-width="1.2" data-name="Firewatch Station" data-info="Eastern coastal military base (Mainland)." data-side="south"></polygon>
        <polygon points="180,710 193,688 206,710" fill="#ff8855" stroke="#000" stroke-width="1.2" data-name="Southern Redoubt" data-info="Inland military base (Mainland)." data-side="south"></polygon>
        <polygon points="538,468 551,446 564,468" fill="#ff8855" stroke="#000" stroke-width="1.2" data-name="Spear Point Base" data-info="Forward military strike base (Island)." data-side="south"></polygon>
        <rect x="726" y="676" width="18" height="18" fill="#ffcc00" stroke="#000" stroke-width="2" rx="2" data-name="Meridia (Capital Y)" data-info="Political capital of Country Y (Mainland)." data-side="south"></rect>
        <rect x="52" y="644" width="13" height="13" fill="#ffffff" stroke="#000" stroke-width="1.5" rx="1" data-name="Callhaven" data-info="Major western city (Mainland)." data-side="south"></rect>
        <rect x="340" y="696" width="13" height="13" fill="#ffffff" stroke="#000" stroke-width="1.5" rx="1" data-name="Solano" data-info="Inland major city (Mainland)." data-side="south"></rect>
        <!-- Island node moved north with island -->
      </g>

      <text x="500" y="28" fill="rgba(200,230,200,0.3)" font-size="12" font-weight="bold" text-anchor="middle" letter-spacing="5">COUNTRY X — NORTHERN TERRITORIES</text>
      <text x="500" y="770" fill="rgba(230,210,170,0.3)" font-size="12" font-weight="bold" text-anchor="middle" letter-spacing="5">COUNTRY Y — SOUTHERN UNION</text>
      <text x="500" y="418" fill="rgba(180,210,240,0.06)" font-size="28" font-weight="bold" text-anchor="middle" letter-spacing="6">THE BOREAL PASSAGE</text>

      <line x1="840" y1="752" x2="960" y2="752" stroke="white" stroke-width="2"></line>
      <line x1="840" y1="747" x2="840" y2="757" stroke="white" stroke-width="2"></line>
      <line x1="960" y1="747" x2="960" y2="757" stroke="white" stroke-width="2"></line>
      <text x="900" y="768" fill="rgba(255,255,255,0.4)" font-size="10" text-anchor="middle">200 km</text>

      <text x="6" y="12" fill="rgba(255,255,255,0.12)" font-size="9">0,0</text>
      <text x="948" y="775" fill="rgba(255,255,255,0.12)" font-size="9">1000,780</text>
    </svg>